<?xml version="1.0" standalone="no"?>
<svg style="background: null" xmlns="http://www.w3.org/2000/svg" xmlns:xlink="http://www.w3.org/1999/xlink" version="1.1" width="1001px" height="62px" viewBox="-0.5 -0.5 1001 62"><defs><style>* {margin: 0px; padding: 0px;}</style></defs><g><path d="M 99.55 30 L 171.31 30" fill="none" stroke="#000000" stroke-width="2" stroke-miterlimit="10" pointer-events="none"/><path d="M 177.31 30 L 169.31 34 L 171.31 30 L 169.31 26 Z" fill="#000000" stroke="#000000" stroke-width="2" stroke-miterlimit="10" pointer-events="none"/><path d="M 30.16 0 L 68.94 0 C 85.84 0 99.55 13.43 99.55 30 C 99.55 46.57 85.84 60 68.94 60 L 30.16 60 C 13.26 60 -0.45 46.57 -0.45 30 C -0.45 13.43 13.26 0 30.16 0 Z" fill="#ffffff" stroke="#000000" stroke-miterlimit="10" pointer-events="none"/><g fill="#000000" font-family="Helvetica" text-anchor="middle" font-size="12px"><text x="48.33" y="32.79">开始</text></g><path d="M 279.55 30 L 351.31 30" fill="none" stroke="#000000" stroke-width="2" stroke-miterlimit="10" pointer-events="none"/><path d="M 357.31 30 L 349.31 34 L 351.31 30 L 349.31 26 Z" fill="#000000" stroke="#000000" stroke-width="2" stroke-miterlimit="10" pointer-events="none"/><path d="M 210.16 0 L 248.94 0 C 265.84 0 279.55 13.43 279.55 30 C 279.55 46.57 265.84 60 248.94 60 L 210.16 60 C 193.26 60 179.55 46.57 179.55 30 C 179.55 13.43 193.26 0 210.16 0 Z" fill="#ffffff" stroke="#000000" stroke-miterlimit="10" pointer-events="none"/><g fill="#000000" font-family="Helvetica" text-anchor="middle" font-size="12px"><text x="228.33" y="25.79">访问</text><text x="228.33" y="39.79">fashionnova.com</text></g><path d="M 459.55 30 L 531.31 30" fill="none" stroke="#000000" stroke-width="2" stroke-miterlimit="10" pointer-events="none"/><path d="M 537.31 30 L 529.31 34 L 531.31 30 L 529.31 26 Z" fill="#000000" stroke="#000000" stroke-width="2" stroke-miterlimit="10" pointer-events="none"/><path d="M 390.16 0 L 428.94 0 C 445.84 0 459.55 13.43 459.55 30 C 459.55 46.57 445.84 60 428.94 60 L 390.16 60 C 373.26 60 359.55 46.57 359.55 30 C 359.55 13.43 373.26 0 390.16 0 Z" fill="#ffffff" stroke="#000000" stroke-miterlimit="10" pointer-events="none"/><g fill="#000000" font-family="Helvetica" text-anchor="middle" font-size="12px"><text x="408.33" y="25.79">从collections.json</text><text x="408.33" y="39.79">中get网页内容</text></g><path d="M 639.55 30 L 711.31 30" fill="none" stroke="#000000" stroke-width="2" stroke-miterlimit="10" pointer-events="none"/><path d="M 717.31 30 L 709.31 34 L 711.31 30 L 709.31 26 Z" fill="#000000" stroke="#000000" stroke-width="2" stroke-miterlimit="10" pointer-events="none"/><path d="M 570.16 0 L 608.94 0 C 625.84 0 639.55 13.43 639.55 30 C 639.55 46.57 625.84 60 608.94 60 L 570.16 60 C 553.26 60 539.55 46.57 539.55 30 C 539.55 13.43 553.26 0 570.16 0 Z" fill="#ffffff" stroke="#000000" stroke-miterlimit="10" pointer-events="none"/><g fill="#000000" font-family="Helvetica" text-anchor="middle" font-size="12px"><text x="588.33" y="18.79">从HTML中提取</text><text x="588.33" y="32.79">每一个类别href</text><text x="588.33" y="46.79">构造完整URL表</text></g><path d="M 819.55 30 L 891.31 30" fill="none" stroke="#000000" stroke-width="2" stroke-miterlimit="10" pointer-events="none"/><path d="M 897.31 30 L 889.31 34 L 891.31 30 L 889.31 26 Z" fill="#000000" stroke="#000000" stroke-width="2" stroke-miterlimit="10" pointer-events="none"/><path d="M 750.16 0 L 788.94 0 C 805.84 0 819.55 13.43 819.55 30 C 819.55 46.57 805.84 60 788.94 60 L 750.16 60 C 733.26 60 719.55 46.57 719.55 30 C 719.55 13.43 733.26 0 750.16 0 Z" fill="#ffffff" stroke="#000000" stroke-miterlimit="10" pointer-events="none"/><g fill="#000000" font-family="Helvetica" text-anchor="middle" font-size="12px"><text x="768.33" y="25.79">遍历URL</text><text x="768.33" y="39.79">解析json数据块</text></g><path d="M 930.16 0 L 968.94 0 C 985.84 0 999.55 13.43 999.55 30 C 999.55 46.57 985.84 60 968.94 60 L 930.16 60 C 913.26 60 899.55 46.57 899.55 30 C 899.55 13.43 913.26 0 930.16 0 Z" fill="#ffffff" stroke="#000000" stroke-miterlimit="10" pointer-events="none"/><g fill="#000000" font-family="Helvetica" text-anchor="middle" font-size="12px"><text x="948.33" y="32.79">存入本地数据库</text></g></g></svg>